<!DOCTYPE svg PUBLIC "-//W3C//DTD SVG 1.1//EN" "http://www.w3.org/Graphics/SVG/1.1/DTD/svg11.dtd">

<!-- Uploaded to: SVG Repo, www.svgrepo.com, Transformed by: SVG Repo Mixer Tools -->
<svg width="75px" height="75px" viewBox="0 0 24.00 24.00" xmlns="http://www.w3.org/2000/svg" fill="none" transform="rotate(180)" stroke="#000000" stroke-width="0.00024000000000000003">

<g id="SVGRepo_bgCarrier" stroke-width="0"/>

<g id="SVGRepo_tracerCarrier" stroke-linecap="round" stroke-linejoin="round"/>

<g id="SVGRepo_iconCarrier">

<path fill="#d6d6d6" fill-rule="evenodd" d="M6 2a3 3 0 0 0-3 3v14a3 3 0 0 0 3 3h6a3 3 0 0 0 3-3V5a3 3 0 0 0-3-3H6zm10.293 5.293a1 1 0 0 1 1.414 0l4 4a1 1 0 0 1 0 1.414l-4 4a1 1 0 0 1-1.414-1.414L18.586 13H10a1 1 0 1 1 0-2h8.586l-2.293-2.293a1 1 0 0 1 0-1.414z" clip-rule="evenodd"/>

</g>

</svg>